<?xml version="1.0" encoding="UTF-8" standalone="no"?><!DOCTYPE svg PUBLIC "-//W3C//DTD SVG 1.1//EN" "http://www.w3.org/Graphics/SVG/1.1/DTD/svg11.dtd"><svg width="100%" height="100%" viewBox="0 0 2771 1294" version="1.1" xmlns="http://www.w3.org/2000/svg" xmlnsXlink="http://www.w3.org/1999/xlink" xmlSpace="preserve" xmlnsSerif="http://www.serif.com/" style="fill-rule:evenodd;clip-rule:evenodd;stroke-linecap:round;stroke-linejoin:round;stroke-miterlimit:1.5;"><rect id="Artboard1" x="0" y="0" width="2770.53" height="1292.87" style="fill:none;"/><path d="M425.164,284.145c24.386,-84.501 109.222,-149.086 207.803,-149.086c98.58,0 183.416,64.585 207.802,149.086c85.373,-21.131 183.723,20.046 233.014,105.419c49.29,85.373 35.775,191.136 -25.211,254.505c60.986,63.37 74.501,169.133 25.211,254.506c-49.291,85.373 -147.641,126.55 -233.014,105.419c-24.386,84.501 -109.222,149.086 -207.802,149.086c-98.581,-0 -183.417,-64.585 -207.803,-149.086c-85.373,21.131 -183.723,-20.046 -233.013,-105.419c-49.29,-85.373 -35.776,-191.136 25.21,-254.506c-60.986,-63.369 -74.5,-169.132 -25.21,-254.505c49.29,-85.373 147.64,-126.55 233.013,-105.419Z" style="fill:#5ba4ff;stroke:#1c3553;stroke-width:71.25px;stroke-dasharray:434.63,114,0,0;"/><text x="1268.64px" y="622.643px" style="font-family:'Arial-BoldMT', 'Arial', sans-serif;font-weight:700;font-size:416.667px;fill:#1c3553;">GitHub</text><text x="1284.3px" y="939.667px" style="font-family:'ArialMT', 'Arial', sans-serif;font-size:333.333px;fill:#1c3553;">Lookup</text></svg>